Coordinates
version=1
nRows=16
nColumns=63
inDegrees=yes

Units are S.I. units (second, meters, Newtons, ...)
If the header above contains a line with 'inDegrees', this indicates whether rotational values are in degrees (yes) or radians (no).

endheader
time	pelvis_tilt	pelvis_list	pelvis_rotation	pelvis_tx	pelvis_ty	pelvis_tz	hip_flexion_r	hip_adduction_r	hip_rotation_r	knee_angle_r	knee_angle_r_beta	ankle_angle_r	subtalar_angle_r	mtp_angle_r	hip_flexion_l	hip_adduction_l	hip_rotation_l	knee_angle_l	knee_angle_l_beta	ankle_angle_l	subtalar_angle_l	mtp_angle_l	L5_S1_Flex_Ext	L5_S1_Lat_Bending	L5_S1_axial_rotation	L4_L5_Flex_Ext	L4_L5_Lat_Bending	L4_L5_axial_rotation	L3_L4_Flex_Ext	L3_L4_Lat_Bending	L3_L4_axial_rotation	L2_L3_Flex_Ext	L2_L3_Lat_Bending	L2_L3_axial_rotation	L1_L2_Flex_Ext	L1_L2_Lat_Bending	L1_L2_axial_rotation	L1_T12_Flex_Ext	L1_T12_Lat_Bending	L1_T12_axial_rotation	Abs_r3	Abs_r2	Abs_r1	Abs_t1	Abs_t2	neck_flexion	neck_bending	neck_rotation	arm_flex_r	arm_add_r	arm_rot_r	elbow_flex_r	pro_sup_r	wrist_flex_r	wrist_dev_r	arm_flex_l	arm_add_l	arm_rot_l	elbow_flex_l	pro_sup_l	wrist_flex_l	wrist_dev_l
1.100000	-6.055986	-0.032685	87.736373	0.159406	0.990145	0.455858	-1.528416	-0.114798	6.823560	0.634511	0.011074	23.560381	-8.015281	0.000000	0.052674	-0.086911	-9.072218	2.769776	0.048342	25.277814	11.494883	0.000000	-0.276476	-0.674905	-1.631391	-0.513444	-0.897623	-1.733353	-0.454223	-1.640963	-1.733353	-0.315985	-1.640963	-1.427468	-0.256736	-1.376266	-1.325506	-0.157978	-1.045427	-1.223544	-1.974841	-7.634657	-9.073310	0.000000	0.000000	13.448668	12.913113	-11.913663	28.066308	-2.399681	16.542554	149.605089	87.273427	11.520878	16.807921	5.340775	-18.538550	125.439860	3.579542	22.882191	-10.307855	-0.092512
1.116667	-6.206217	-0.067851	88.105569	0.159708	0.989676	0.456217	-1.426494	-0.217315	6.344047	0.665827	0.011621	24.129161	-7.625140	0.000000	0.193976	0.015718	-8.546536	2.817689	0.049178	25.543023	11.278891	0.000000	-0.281956	-0.714898	-1.775826	-0.523621	-0.950814	-1.886816	-0.463226	-1.738203	-1.886816	-0.322248	-1.738203	-1.553848	-0.261825	-1.457820	-1.442859	-0.161110	-1.107377	-1.331870	-2.013987	-8.087067	-9.876614	0.000000	0.000000	13.764892	13.538533	-12.366946	28.980444	-1.619446	16.226570	149.713472	86.987411	12.893541	15.716144	4.382171	-19.189397	126.264038	4.368580	28.394725	-11.941421	1.068246
1.133333	-6.356666	-0.108039	88.452148	0.160068	0.989230	0.456586	-1.319282	-0.320744	5.915056	0.693030	0.012096	24.651750	-7.329261	0.000000	0.336360	0.117279	-8.019428	2.861918	0.049950	25.804147	11.031455	0.000000	-0.287803	-0.753303	-1.882586	-0.534478	-1.001893	-2.000248	-0.472831	-1.831581	-2.000248	-0.328930	-1.831581	-1.647263	-0.267254	-1.536135	-1.529601	-0.164450	-1.166866	-1.411939	-2.055745	-8.521514	-10.470378	0.000000	0.000000	14.117569	14.104206	-12.888684	29.703372	-0.952611	15.876806	149.782205	86.267440	13.762796	14.970142	3.511999	-19.850917	125.529837	5.548643	34.654900	-13.639998	1.965702
1.150000	-6.477263	-0.156528	88.753828	0.160388	0.988871	0.456968	-1.204596	-0.402010	5.528933	0.715242	0.012483	25.120707	-7.077054	0.000000	0.489706	0.187404	-7.698516	2.931835	0.051170	26.072697	10.978905	0.000000	-0.293123	-0.784620	-1.963072	-0.544359	-1.043545	-2.085763	-0.481572	-1.907725	-2.085763	-0.335010	-1.907725	-1.717688	-0.272194	-1.599997	-1.594996	-0.167491	-1.215376	-1.472304	-2.093749	-8.875779	-10.918015	0.000000	0.000000	14.451415	14.604906	-13.368307	30.293987	-0.418252	15.544769	149.829843	86.148075	14.381986	14.419945	2.856409	-20.155559	128.667958	6.053718	36.314243	-14.691588	2.291077
1.166667	-6.571529	-0.193389	89.014760	0.160656	0.988593	0.457348	-1.107967	-0.466184	5.246419	0.731715	0.012771	25.498437	-6.963944	0.000000	0.632412	0.231891	-7.482808	3.029060	0.052867	26.327551	11.017199	0.000000	-0.299934	-0.809245	-2.029917	-0.557007	-1.076296	-2.156787	-0.492761	-1.967598	-2.156787	-0.342794	-1.967598	-1.776178	-0.278518	-1.650212	-1.649308	-0.171382	-1.253520	-1.522438	-2.142395	-9.154341	-11.289792	0.000000	0.000000	14.740847	15.023207	-13.718661	30.813848	0.008260	15.278224	149.832406	86.197450	14.798430	14.016508	2.288629	-20.382560	131.718886	6.545380	36.899590	-15.387772	2.489550
1.183333	-6.633558	-0.218924	89.235472	0.160834	0.988379	0.457751	-1.029528	-0.507668	5.040884	0.744818	0.013000	25.782823	-6.951767	0.000000	0.760156	0.249516	-7.377802	3.140217	0.054807	26.565638	11.125941	0.000000	-0.308290	-0.826327	-2.094416	-0.572525	-1.099014	-2.225317	-0.506489	-2.009130	-2.225317	-0.352344	-2.009130	-1.832614	-0.286278	-1.685045	-1.701713	-0.176157	-1.279980	-1.570812	-2.202083	-9.347571	-11.648516	0.000000	0.000000	14.968904	15.358716	-13.893586	31.311934	0.364745	15.087647	149.786277	86.401781	15.091734	13.696411	1.781057	-20.544983	134.414708	7.019618	36.485272	-15.689512	2.628493
1.200000	-6.675777	-0.225665	89.399861	0.160924	0.988223	0.458117	-0.982744	-0.542147	4.951030	0.754354	0.013166	25.958214	-7.059374	0.000000	0.857924	0.254902	-7.373255	3.260603	0.056908	26.784260	11.290005	0.000000	-0.317876	-0.837141	-2.153097	-0.590327	-1.113397	-2.287666	-0.522238	-2.035424	-2.287666	-0.363300	-2.035424	-1.883960	-0.295180	-1.707097	-1.749391	-0.181634	-1.296731	-1.614823	-2.270556	-9.469901	-11.974880	0.000000	0.000000	15.141944	15.598030	-13.875836	31.778111	0.659064	14.977236	149.726700	86.650694	15.241873	13.475191	1.330280	-20.642750	136.786185	7.460136	34.983967	-15.612780	2.810047
1.216667	-6.691623	-0.223625	89.534739	0.160912	0.988110	0.458438	-0.963165	-0.559187	4.929954	0.759255	0.013251	26.011886	-7.244457	0.000000	0.942040	0.239326	-7.438026	3.397645	0.059300	26.978284	11.484774	0.000000	-0.327654	-0.841059	-2.212075	-0.608486	-1.118608	-2.350330	-0.538302	-2.044950	-2.350330	-0.374475	-2.044950	-1.935566	-0.304259	-1.715087	-1.797311	-0.187221	-1.302800	-1.659056	-2.340398	-9.514225	-12.302897	0.000000	0.000000	15.280610	15.789584	-13.628589	32.215018	0.900595	14.959059	149.671731	86.914506	15.287898	13.356102	0.909530	-20.691178	138.363947	7.887599	32.634175	-15.213046	2.918100
1.233333	-6.711679	-0.216987	89.619140	0.160873	0.988026	0.458693	-0.962828	-0.587748	5.038791	0.760256	0.013269	25.946591	-7.556582	0.000000	1.009534	0.232861	-7.592610	3.536949	0.061731	27.139311	11.728578	0.000000	-0.336622	-0.842850	-2.260273	-0.625140	-1.120991	-2.401541	-0.553036	-2.049306	-2.401541	-0.384725	-2.049306	-1.977739	-0.312587	-1.718740	-1.836472	-0.192346	-1.305575	-1.695205	-2.404454	-9.534491	-12.570963	0.000000	0.000000	15.394714	15.914667	-13.275109	32.596827	1.100835	15.025279	149.645440	87.157085	15.180456	13.295698	0.531884	-20.715179	139.406981	8.264649	29.324337	-14.495183	2.893581
1.250000	-6.721251	-0.209284	89.691543	0.160765	0.987965	0.458879	-0.979114	-0.609507	5.267333	0.754564	0.013170	25.774303	-8.029676	0.000000	1.074287	0.218255	-7.794836	3.692341	0.064444	27.277609	12.029801	0.000000	-0.344829	-0.840597	-2.308113	-0.640382	-1.117994	-2.452370	-0.566519	-2.043827	-2.452370	-0.394105	-2.043827	-2.019598	-0.320208	-1.714145	-1.875341	-0.197035	-1.302085	-1.731084	-2.463078	-9.509001	-12.837030	0.000000	0.000000	15.487391	15.983700	-12.794978	32.937265	1.259632	15.221349	149.634713	87.323412	14.833345	13.332320	0.169946	-20.718852	139.730282	8.612064	25.173703	-13.594239	2.654811
1.266667	-6.754482	-0.194668	89.703425	0.160735	0.987935	0.459004	-1.004131	-0.656517	5.632491	0.742808	0.012964	25.555955	-8.596494	0.000000	1.118325	0.228674	-8.070860	3.838858	0.067001	27.367110	12.379595	0.000000	-0.352384	-0.840800	-2.343362	-0.654412	-1.118264	-2.489822	-0.578931	-2.044322	-2.489822	-0.402740	-2.044322	-2.050442	-0.327224	-1.714560	-1.903982	-0.201352	-1.302400	-1.757522	-2.517043	-9.511302	-13.033077	0.000000	0.000000	15.564809	16.033848	-12.313738	33.215190	1.400824	15.488386	149.632529	87.397701	14.349499	13.411998	-0.170309	-20.740220	139.528910	8.903627	20.375545	-12.537071	2.171733
1.283333	-6.791596	-0.172666	89.667399	0.160758	0.987926	0.459085	-1.032125	-0.708435	6.006161	0.724356	0.012642	25.372254	-9.080479	0.000000	1.144192	0.244809	-8.362757	3.975988	0.069394	27.412530	12.729845	0.000000	-0.359620	-0.841399	-2.367242	-0.667851	-1.119060	-2.515195	-0.590820	-2.045777	-2.515195	-0.411010	-2.045777	-2.071337	-0.333943	-1.715781	-1.923384	-0.205487	-1.303327	-1.775432	-2.568732	-9.518072	-13.165891	0.000000	0.000000	15.625384	16.052364	-11.892706	33.431018	1.509034	15.798120	149.634988	87.424627	13.770322	13.503420	-0.498347	-20.771405	138.430899	9.134073	16.073219	-11.533204	1.520423
1.300000	-6.827390	-0.148836	89.597691	0.160849	0.987913	0.459132	-1.051890	-0.755886	6.444270	0.701207	0.012238	25.242408	-9.572097	0.000000	1.161637	0.259050	-8.668267	4.104294	0.071633	27.433680	13.101111	0.000000	-0.365505	-0.841908	-2.383769	-0.678779	-1.119738	-2.532754	-0.600488	-2.047015	-2.532754	-0.417735	-2.047015	-2.085798	-0.339408	-1.716819	-1.936812	-0.208849	-1.304115	-1.787826	-2.610764	-9.523831	-13.257806	0.000000	0.000000	15.675753	16.017142	-11.548380	33.587590	1.585876	16.142348	149.641805	87.479634	13.139739	13.572487	-0.802754	-20.809891	137.194352	9.286598	12.323293	-10.730637	0.853778
1.316667	-6.866262	-0.104172	89.502731	0.161004	0.987909	0.459149	-1.082143	-0.802329	6.859093	0.673278	0.011751	25.199793	-9.990860	0.000000	1.152590	0.275398	-8.949313	4.223916	0.073721	27.454495	13.480283	0.000000	-0.371937	-0.843456	-2.391178	-0.690725	-1.121796	-2.540626	-0.611056	-2.050778	-2.540626	-0.425087	-2.050778	-2.092281	-0.345381	-1.719975	-1.942832	-0.212525	-1.306513	-1.793383	-2.656712	-9.541339	-13.299013	0.000000	0.000000	15.681228	15.943275	-11.301705	33.682055	1.624389	16.492911	149.653376	87.558669	12.464452	13.561672	-1.064317	-20.852835	136.001899	9.379555	9.556582	-10.149214	0.359572
1.333333	-6.926743	-0.029751	89.371743	0.161262	0.987944	0.459155	-1.130214	-0.869335	7.248270	0.642606	0.011216	25.248624	-10.298420	0.000000	1.102049	0.316581	-9.196699	4.317480	0.075354	27.453169	13.814622	0.000000	-0.380198	-0.849756	-2.386891	-0.706066	-1.130175	-2.536072	-0.624628	-2.066096	-2.536072	-0.434529	-2.066096	-2.088530	-0.353052	-1.732822	-1.939349	-0.217245	-1.316271	-1.790169	-2.715719	-9.612605	-13.275174	0.000000	0.000000	15.664635	15.883261	-11.223499	33.711461	1.652330	16.744584	149.667832	87.595481	12.035426	13.463434	-1.265700	-20.910741	134.956931	9.441878	7.930437	-9.766237	0.099345
1.350000	-6.997700	0.064026	89.238093	0.161571	0.987997	0.459122	-1.190948	-0.943514	7.525125	0.615825	0.010748	25.391764	-10.446606	0.000000	1.023932	0.369000	-9.394689	4.389548	0.076612	27.469893	14.121726	0.000000	-0.388637	-0.858701	-2.377129	-0.721738	-1.142073	-2.525699	-0.638492	-2.087846	-2.525699	-0.444173	-2.087846	-2.079988	-0.360888	-1.751064	-1.931417	-0.222067	-1.330128	-1.782847	-2.775995	-9.713800	-13.220877	0.000000	0.000000	15.630006	15.832691	-11.256366	33.678486	1.653051	16.932865	149.681556	87.626287	11.748999	13.200536	-1.442652	-20.979332	133.823715	9.467341	7.339728	-9.513930	-0.003038
